<svg width="191" height="49" viewBox="0 0 191 49" fill="none" xmlns="http://www.w3.org/2000/svg">
<g clip-path="url(#clip0_162_1495)">
<path d="M13.9168 32.1688C15.6661 32.1688 17.1987 31.6269 18.4836 30.5588C19.7685 29.4906 20.9914 28.1438 22.168 26.5338C23.329 24.9238 24.521 23.1745 25.744 21.2704C26.967 19.3663 28.3602 17.617 29.9547 16.007C31.5492 14.397 33.4224 13.0502 35.5742 11.982C37.726 10.9138 40.3113 10.372 43.361 10.372C44.7233 10.372 46.0391 10.5578 47.3085 10.9293C48.5779 11.3009 49.7545 11.8272 50.8226 12.5083C51.8908 13.1895 52.8506 14.0255 53.6711 15.0007C54.4915 15.9915 55.1572 17.0906 55.6526 18.2981C54.6154 19.8307 53.6865 21.3013 52.8661 22.6791C52.0456 24.0569 51.2251 25.2644 50.3892 26.3016H36.2553C36.6114 28.1593 37.3854 29.599 38.5929 30.6207C39.7849 31.6424 41.1782 32.1533 42.7572 32.1533C44.7697 32.1533 46.4726 31.6114 47.8813 30.5433C49.29 29.4751 50.5904 28.1283 51.7515 26.5183C52.9125 24.9083 54.0581 23.159 55.1882 21.2549C56.3182 19.3508 57.6186 17.6015 59.0893 15.9915C60.5599 14.3815 62.2938 13.0347 64.3062 11.9665C66.3187 10.8984 68.7647 10.3565 71.6595 10.3565C73.7339 10.3565 75.6381 10.6816 77.3564 11.3473C79.0748 12.013 80.5454 12.9573 81.7684 14.1648C82.9914 15.3877 83.9202 16.8429 84.5859 18.5768C85.2515 20.2951 85.5766 22.1992 85.5766 24.2736V37.6025H79.1367V35.0172C78.4865 35.8841 77.4957 36.5962 76.1489 37.2C74.8021 37.8037 73.1612 38.0824 71.2416 38.0824C68.3002 38.0824 65.7459 37.3548 63.5632 35.8996C61.3804 34.4444 59.8014 32.4319 58.8416 29.8621C59.4453 28.9023 60.0181 27.958 60.529 27.0447C61.0398 26.1313 61.5507 25.2489 62.0616 24.413C62.5569 23.577 63.0678 22.7875 63.5632 22.0444C64.0586 21.3168 64.6004 20.6357 65.1732 20.0319C64.5694 21.2549 64.2598 22.6482 64.2598 24.2272C64.2598 26.735 64.941 28.6856 66.3033 30.0789C67.6655 31.4721 69.4768 32.1688 71.7215 32.1688C73.9662 32.1688 75.7774 31.4721 77.1242 30.0789C78.471 28.6856 79.1367 26.735 79.1367 24.2272C79.1367 21.7193 78.471 19.7688 77.1242 18.3755C75.7774 16.9823 73.9816 16.2856 71.7215 16.2856C70.0341 16.2856 68.5944 16.5952 67.3714 17.2299C66.1484 17.8492 65.0648 18.6851 64.0895 19.7068C63.1297 20.7286 62.2318 21.8896 61.4268 23.2055C60.6219 24.5058 59.8014 25.8527 58.9809 27.1995C58.1604 28.5618 57.278 29.8931 56.3182 31.209C55.3739 32.5093 54.2748 33.6859 53.0209 34.7076C51.7669 35.7293 50.3118 36.5498 48.6708 37.1845C47.0299 37.8037 45.0793 38.1288 42.8191 38.1288C41.2865 38.1288 39.8159 37.8966 38.4381 37.4322C37.0603 36.9677 35.8219 36.3021 34.7073 35.4506C33.5927 34.5837 32.6484 33.5465 31.8588 32.3081C31.0693 31.0696 30.4811 29.7073 30.0786 28.2057C30.4037 27.6329 30.7752 26.9982 31.2087 26.3016C31.6421 25.605 32.0911 24.9083 32.571 24.2117C33.0509 23.5151 33.5617 22.8339 34.0726 22.1683C34.5834 21.5026 35.0788 20.9453 35.5432 20.4809H49.5068C48.934 19.1495 48.0671 18.1433 46.9215 17.4157C45.7759 16.7036 44.5375 16.3475 43.2216 16.3475C41.364 16.3475 39.754 16.6572 38.3917 17.2919C37.0294 17.9111 35.8219 18.747 34.7692 19.7688C33.7165 20.7905 32.7567 21.9515 31.8898 23.2674C31.0229 24.5678 30.1869 25.8991 29.3355 27.2459C28.4996 28.5927 27.6172 29.9086 26.7038 31.2244C25.7904 32.5248 24.7378 33.7013 23.5612 34.7231C22.3847 35.7448 21.0224 36.5653 19.4743 37.2C17.9418 37.8192 16.115 38.1443 13.9942 38.1443C12.0282 38.1443 10.186 37.8347 8.4831 37.2C6.78023 36.5807 5.30957 35.6674 4.05564 34.4908C2.8017 33.3143 1.81094 31.8591 1.06787 30.1408C0.340285 28.4224 -0.03125 26.4874 -0.03125 24.3356V0H6.40869V13.3753C7.05888 12.5548 8.04964 11.8427 9.39645 11.2235C10.7433 10.6197 12.3997 10.3101 14.3657 10.3101C17.2606 10.3101 19.784 11.0067 21.9048 12.4C24.0411 13.7932 25.5892 15.7593 26.549 18.3136C26.2549 18.6387 25.8524 19.1495 25.3415 19.8771C24.8152 20.5892 24.2888 21.3478 23.7625 22.1528C23.2207 22.9578 22.7098 23.7318 22.2299 24.4904C21.75 25.2489 21.363 25.8217 21.0688 26.2087C21.2082 25.6359 21.2856 24.9548 21.2856 24.1653C21.2856 21.6574 20.6044 19.7068 19.2421 18.3136C17.8798 16.9203 16.0686 16.2237 13.8239 16.2237C11.5792 16.2237 9.76799 16.9203 8.42117 18.3136C7.07436 19.7068 6.40869 21.6574 6.40869 24.1653C6.40869 26.6731 7.08984 28.6392 8.45214 30.0479C9.81443 31.4566 11.6257 32.1688 13.8704 32.1688H13.9168Z" fill="#EEEEEE"/>
<path d="M101.847 37.974C97.404 37.974 94.0447 36.8903 91.769 34.723C89.4934 32.5558 88.3633 29.3977 88.3633 25.2489V0H94.8032V10.7436H100.934V16.6572H94.8032V25.2025C94.8032 27.6794 95.345 29.4442 96.4132 30.4968C97.4814 31.5495 99.2926 32.0759 101.831 32.0759V37.9895L101.847 37.974Z" fill="#EEEEEE"/>
<path d="M117.203 10.372C118.674 10.372 120.082 10.5578 121.414 10.9138C122.761 11.2699 124.014 11.8117 125.175 12.5548C126.337 13.2824 127.358 14.1957 128.241 15.2949C129.123 16.394 129.789 17.6634 130.253 19.1341C129.293 20.357 128.38 21.5026 127.544 22.5708C126.708 23.6389 125.748 24.9238 124.665 26.379V24.2272C124.665 21.7193 123.999 19.7688 122.652 18.3755C121.305 16.9822 119.51 16.2856 117.249 16.2856C114.989 16.2856 113.178 16.9822 111.831 18.3755C110.469 19.7688 109.788 21.7193 109.788 24.2272C109.788 26.735 110.469 28.6856 111.831 30.0789C113.193 31.4721 115.005 32.1687 117.249 32.1687C118.999 32.1687 120.578 31.6269 121.956 30.5588C123.333 29.4906 124.68 28.1283 125.98 26.5028C127.281 24.8774 128.628 23.1126 130.005 21.2394C131.383 19.3663 132.947 17.6015 134.681 15.976C136.414 14.3505 138.411 12.9882 140.641 11.9201C142.885 10.8519 145.517 10.3101 148.567 10.3101C151.616 10.3101 154.356 11.0532 156.57 12.5393C158.784 14.0254 160.378 16.0379 161.354 18.5768C160.286 20.1093 159.31 21.58 158.428 22.9887C157.545 24.382 156.539 25.8372 155.394 27.3388C155.719 26.41 155.874 25.3573 155.874 24.1653C155.874 21.6574 155.192 19.7068 153.83 18.3136C152.468 16.9203 150.657 16.2237 148.412 16.2237C146.167 16.2237 144.279 16.6726 142.669 17.5705C141.059 18.4684 139.603 19.614 138.319 21.0072C137.034 22.4005 135.826 23.9485 134.696 25.6204C133.566 27.3078 132.374 28.9333 131.12 30.5123V37.6024H124.68V36.3176C123.395 36.9987 122.11 37.4631 120.841 37.7108C119.572 37.9585 118.194 38.0823 116.739 38.0823C114.803 38.0823 113.008 37.7573 111.367 37.0916C109.726 36.4259 108.302 35.4971 107.125 34.2741C105.949 33.0511 105.02 31.596 104.354 29.8621C103.688 28.1438 103.363 26.2397 103.363 24.1653C103.363 22.0909 103.688 20.2022 104.354 18.4993C105.02 16.7965 105.964 15.3413 107.172 14.1493C108.394 12.9573 109.85 12.013 111.553 11.3628C113.255 10.6971 115.144 10.372 117.218 10.372H117.203ZM148.396 32.1223C149.898 32.1223 151.229 31.8127 152.39 31.178C153.551 30.5588 154.604 29.7228 155.564 28.7011C156.508 27.6794 157.406 26.5183 158.242 25.2025C159.078 23.9021 159.945 22.5553 160.827 21.2085C161.71 19.8462 162.639 18.5148 163.645 17.2145C164.651 15.9141 165.797 14.7376 167.082 13.7158C168.366 12.6941 169.853 11.8736 171.509 11.2389C173.181 10.6197 175.101 10.2946 177.283 10.2946C179.327 10.2946 181.184 10.6197 182.841 11.2854C184.513 11.951 185.952 12.8799 187.16 14.0719C188.383 15.2794 189.312 16.7191 189.977 18.4219C190.643 20.1248 190.968 22.0135 190.968 24.0879C190.968 26.1623 190.643 28.0664 189.977 29.7847C189.312 31.5031 188.398 32.9737 187.206 34.1967C186.03 35.4197 184.606 36.3485 182.965 37.0142C181.324 37.6798 179.528 38.0049 177.593 38.0049C175.658 38.0049 174.017 37.6953 172.686 37.0916C171.339 36.4878 170.332 35.7603 169.651 34.9398V48.315H163.211V31.2863C163.815 30.3885 164.45 29.3668 165.116 28.1902C165.781 27.0292 166.447 25.8836 167.097 24.7845C167.763 23.6699 168.382 22.6791 168.97 21.7967C169.558 20.9143 170.085 20.2951 170.549 19.939C169.945 21.162 169.636 22.5553 169.636 24.1343C169.636 26.6422 170.317 28.5927 171.679 29.986C173.042 31.3792 174.853 32.0759 177.098 32.0759C179.342 32.0759 181.153 31.3792 182.5 29.986C183.847 28.5927 184.513 26.6422 184.513 24.1343C184.513 21.6264 183.832 19.6759 182.469 18.2826C181.107 16.8894 179.296 16.1927 177.051 16.1927C174.806 16.1927 172.995 16.7346 171.54 17.8027C170.085 18.8709 168.8 20.2177 167.67 21.8277C166.54 23.4377 165.456 25.187 164.419 27.0911C163.382 28.9952 162.174 30.7445 160.796 32.3545C159.419 33.9645 157.747 35.3113 155.796 36.3795C153.846 37.4476 151.384 37.9895 148.412 37.9895C146.585 37.9121 145.037 37.6024 143.768 37.0297C142.498 36.4569 141.554 35.7603 140.95 34.9398V48.3615H134.51V27.8961C134.944 27.184 135.501 26.3325 136.182 25.3727C136.863 24.413 137.591 23.4686 138.365 22.5553C139.139 21.6419 139.882 20.8524 140.625 20.1713C141.353 19.4901 141.972 19.1031 142.483 18.9947C141.477 20.3261 140.981 22.0599 140.981 24.2117C140.981 26.7196 141.647 28.6546 142.994 30.0324C144.341 31.4102 146.136 32.1068 148.396 32.1068V32.1223Z" fill="#5546FB"/>
</g>
<defs>
<clipPath id="clip0_162_1495">
<rect width="191" height="48.3924" fill="white"/>
</clipPath>
</defs>
</svg>
